<svg width="758" height="758" viewBox="0 0 758 758" fill="none" xmlns="http://www.w3.org/2000/svg">
<path d="M153.621 577.225C131.589 576.215 112.15 572.947 93.4864 567.152C72.2287 560.549 51.6448 550.207 34.8678 537.675C29.3428 533.565 22.9082 528.309 22.9082 527.905C22.9082 527.736 25.7381 524.233 29.208 520.089C45.0418 501.19 49.6572 495.698 56.1591 487.916C59.9997 483.301 64.3455 478.113 65.8279 476.361C67.3102 474.609 68.5567 473.127 68.5903 473.059C68.624 472.992 70.5443 474.34 72.8351 476.058C97.3607 494.351 122.964 504.828 151.094 508.096C156.181 508.668 173.127 508.668 176.866 508.096C186.67 506.546 194.048 502.908 197.417 497.955C199.573 494.822 200.28 492.296 200.247 487.815C200.213 482.593 199.539 480.774 196.44 477.675C191.588 472.891 184.244 470.465 151.6 462.885C123.301 456.35 108.175 452.037 94.3287 446.58C88.1299 444.121 76.9789 438.663 72.5993 435.9C51.3753 422.627 40.5275 405.951 37.327 381.695C36.687 376.81 36.788 362.627 37.5292 357.271C42.4478 320.819 65.2551 294.205 102.515 281.437C113.801 277.563 125.963 275.204 139.775 274.194C151.027 273.385 171.914 274.093 184.783 275.777C213.621 279.483 239.561 288.882 262.066 303.773C266.951 306.973 274.16 312.262 274.867 313.104C275.171 313.475 271.094 319.472 255.159 341.976C244.109 357.608 234.811 370.679 234.474 371.016C233.902 371.622 233.767 371.555 230.23 369.129C221.841 363.368 211.195 357.54 201.628 353.464C176.563 342.751 147.658 339.281 132.801 345.21C122.931 349.118 118.45 357.338 120.943 367.04C122.29 372.363 125.457 375.732 132.229 379.034C139.27 382.47 149.14 385.232 173.498 390.623C194.856 395.339 206.984 398.54 218.742 402.548C251.858 413.868 270.656 428.893 278.742 450.521C283.323 462.784 284.671 478.652 282.481 494.553C278.742 521.538 264.761 543.267 241.785 557.787C237.574 560.448 228.512 564.996 223.526 566.95C210.555 572.037 196.743 575.137 180.235 576.619C174.811 577.091 158.708 577.461 153.621 577.225Z" fill="white"/>
<path d="M322.74 425.659V278.944H364.009H405.278V425.659V572.375H364.009H322.74V425.659Z" fill="white"/>
<path d="M662.424 545.356C673.036 530.465 683.817 515.339 686.411 511.734L691.127 505.131L714.777 538.618C727.814 557.012 738.46 572.139 738.46 572.24C738.46 572.307 717 572.374 690.79 572.374H643.154L662.424 545.356Z" fill="white"/>
<path d="M481.649 345.85C455.776 309.231 434.586 279.214 434.586 279.113C434.586 279.012 456.315 278.944 482.862 278.944H531.105L554.148 311.521C566.815 329.444 577.191 344.233 577.191 344.436C577.191 344.84 529.319 412.117 528.949 412.285C528.814 412.319 507.522 382.437 481.649 345.85Z" fill="white"/>
<path d="M220.224 236.833C214.295 236.193 210.05 234.711 208.332 232.689C207.018 231.14 205.974 228.647 205.267 225.379C204.728 222.886 204.66 220.763 204.66 208.366C204.66 196.036 204.728 193.913 205.233 191.926C206.378 187.546 208.164 184.986 211.229 183.436C215.777 181.112 224.132 180.168 233.868 180.842C241.886 181.415 245.255 182.291 247.176 184.346C248.86 186.165 249.972 190.241 249.972 194.823V197.08H247.108H244.245V195.126C244.245 192.768 243.47 189.568 242.56 188.321C241.145 186.333 237.204 185.626 227.468 185.626C218.068 185.66 214.127 186.502 212.274 188.86C210.488 191.117 209.916 196.204 209.916 209.04C209.882 222.313 210.556 226.962 212.745 229.287C214.801 231.443 219.888 232.251 230.196 232.049C241.954 231.78 243.301 230.904 244.312 222.852C244.514 221.033 244.581 218.574 244.413 216.856L244.177 213.925H235.283H226.389V211.566V209.208H238.214H250.039L249.871 217.395C249.5 234.946 247.816 236.564 229.758 236.968C226.154 237.069 221.875 237.002 220.224 236.833Z" fill="white"/>
<path d="M375.058 236.833C367.007 236.058 363.234 233.869 361.414 228.95C360.673 226.895 360.673 226.861 360.539 204.088L360.438 181.247H363.301H366.165L366.266 203.077C366.4 223.189 366.434 225.008 367.041 226.828C368.489 231.409 370.14 231.948 382.201 231.948C391.869 231.948 394.059 231.611 395.912 229.86C398.236 227.636 398.54 224.402 398.54 200.55V181.247H401.437H404.3L404.166 203.245C404.065 222.515 403.964 225.48 403.458 227.4C401.942 233.195 399.314 235.317 392.139 236.496C389.107 236.968 378.798 237.204 375.058 236.833Z" fill="white"/>
<path d="M527.433 236.833C520.762 236.193 516.147 234.509 514.563 232.117C513.384 230.331 512.475 227.434 511.835 223.257C511.06 218.271 510.959 195.329 511.7 192.364C513.62 184.649 518.101 181.786 529.824 180.842C537.944 180.202 547.511 181.247 551.385 183.201C555.596 185.357 557.247 190.141 557.887 201.965C558.258 209.175 557.854 219.618 557.045 224.604C555.731 232.589 553.44 234.947 545.49 236.328C541.986 236.968 531.61 237.238 527.433 236.833ZM543.94 231.612C547.848 230.938 549.768 229.961 550.577 228.344C551.958 225.548 552.295 221.572 552.295 208.029C552.329 194.015 552.16 192.196 550.476 189.534C548.623 186.603 544.749 185.66 534.777 185.626C524.569 185.626 519.482 186.839 518.37 189.602C517.157 192.634 516.955 195.598 516.955 209.377C516.989 223.661 517.225 226.255 518.741 228.883C519.482 230.129 522.042 231.275 525.243 231.713C528.949 232.252 540.605 232.184 543.94 231.612Z" fill="white"/>
<path d="M283.324 208.838V181.213L299.428 181.314C315.059 181.415 315.564 181.449 317.754 182.19C322.033 183.638 324.29 186.266 325.301 191.05C326.008 194.284 325.772 202.437 324.964 205.098C324.223 207.457 322.504 209.309 320.214 210.253C317.99 211.162 317.754 212.005 319.573 212.577C321.325 213.184 323.212 215.003 324.121 217.058C324.896 218.742 324.93 219.248 325.031 227.67L325.166 236.496H322.269H319.371V230.028C319.371 222.953 319.034 219.921 318.024 217.967C317.148 216.283 315.261 214.733 313.442 214.295C312.532 214.06 307.715 213.925 300.708 213.925H289.388V225.211V236.496H286.356H283.324V208.838ZM310.646 208.905C314.722 208.467 316.171 207.996 317.687 206.648C319.675 204.829 320.214 202.909 320.18 197.586C320.18 192.263 319.54 189.736 317.855 188.119C315.935 186.334 314.958 186.199 301.617 186.064L289.388 185.929V197.552V209.208H298.585C303.605 209.208 309.063 209.074 310.646 208.905Z" fill="white"/>
<path d="M439.977 208.871V181.247H454.564C470.499 181.247 472.183 181.415 475.687 183.167C478.011 184.38 479.494 186.3 480.471 189.433C481.144 191.589 481.245 192.566 481.245 198.091C481.245 204.997 480.909 206.715 479.089 209.613C477.405 212.274 474.44 213.655 469.252 214.262C467.703 214.43 461.841 214.599 456.248 214.599H446.041V225.547V236.496H443.009H439.977V208.871ZM471.038 208.602C474.878 207.322 475.855 205.098 475.822 197.754C475.788 190.107 474.912 187.85 471.543 186.738C470.061 186.266 467.972 186.165 457.933 186.03L446.041 185.929V197.754V209.613L457.427 209.478C468.039 209.343 468.915 209.276 471.038 208.602Z" fill="white"/>
<path d="M434.487 571.97C434.689 571.734 462.718 532.42 496.811 484.615C629.04 299.158 642.482 280.326 643.054 279.652L643.627 278.944L690.994 279.012L738.394 279.113L686.378 352.016L634.363 424.918L636.317 427.647C637.361 429.129 648.04 444.256 660.034 461.201L681.83 491.993L680.719 493.543C680.112 494.385 667.243 512.442 652.083 533.733L624.526 572.375H529.354C453.251 572.375 434.251 572.274 434.487 571.97Z" fill="#0F75BD"/>
</svg>
